/* XPM */
static char * 10_xpm[] = {
"35 35 27 1",
" 	c #F0F0E5",
".	c #EEEEE3",
"+	c #EAEAE0",
"@	c #E8E8DF",
"#	c #E2E2DA",
"$	c #DCDCD6",
"%	c #DADAD4",
"&	c #D9D9D4",
"*	c #D2D2CF",
"=	c #CFCFCD",
"-	c #CCCCCA",
";	c #C8C8C8",
">	c #C5C5C5",
",	c #B9B9B9",
"'	c #575757",
")	c #0D0D0D",
"!	c #262626",
"~	c #ACACAC",
"{	c #191919",
"]	c #3E3E3E",
"^	c #949494",
"/	c #636363",
"(	c #7B7B7B",
"_	c #A0A0A0",
":	c #6F6F6F",
"<	c #888888",
"[	c #4A4A4A",
"  .+@@@@@@@@@@@@@@@@@@@@@@@@@@@+.  ",
" +#$%%%%%%%%%%%%%%%%%%%%%%%%%%%$#+ ",
".#&*===========================*&#.",
"+$*-;;;;;;;;;;;;;;;;;;;;;;;;;;;-*$+",
"@%=;>>>>>>>>>>>>>>>>>>>>>>>>>>>;=%@",
"@%=;>>>>>>>>>>>>>>>>>>>>>>>>>>>;=%@",
"@%=;>>>>>>>>>>>>>>>>>>>>>>>>>>>;=%@",
"@%=;>>>>>>>>>>>>>>>>>>>>>>>>>>>;=%@",
"@%=;>>>>>>>>>>>>>>>>>>>>>>>>>>>;=%@",
"@%=;>>>>>,')!>>>>>>>~'!{]^>>>>>;=%@",
"@%=;>>>,/{)))>>>>>>^{)!!))(>>>>;=%@",
"@%=;>>>_)!:))>>>>>,{):>><))_>>>;=%@",
"@%=;>>>>(>_))>>>>>/)]>>>>[)'>>>;=%@",
"@%=;>>>>>>_))>>>>>!)(>>>>^))>>>;=%@",
"@%=;>>>>>>_))>>>>,))~>>>>~))~>>;=%@",
"@%=;>>>>>>_))>>>>_))>>>>>>{)^>>;=%@",
"@%=;>>>>>>_))>>>>^))>>>>>>))^>>;=%@",
"@%=;>>>>>>_))>>>>^))>>>>>>))^>>;=%@",
"@%=;>>>>>>_))>>>>_){>>>>>>))_>>;=%@",
"@%=;>>>>>>_))>>>>,))~>>>>~))~>>;=%@",
"@%=;>>>>>>_))>>>>>!)<>>>><)!>>>;=%@",
"@%=;>>>>>>_))>>>>>/)]>>>>])/>>>;=%@",
"@%=;>>>>>>_))>>>>>,{)(>>(){~>>>;=%@",
"@%=;>>>>>>_))>>>>>><))!!))<>>>>;=%@",
"@%=;>>>>>>_)!>>>>>>>_]{![_>>>>>;=%@",
"@%=;>>>>>>>>>>>>>>>>>>>>>>>>>>>;=%@",
"@%=;>>>>>>>>>>>>>>>>>>>>>>>>>>>;=%@",
"@%=;>>>>>>>>>>>>>>>>>>>>>>>>>>>;=%@",
"@%=;>>>>>>>>>>>>>>>>>>>>>>>>>>>;=%@",
"@%=;>>>>>>>>>>>>>>>>>>>>>>>>>>>;=%@",
"@%=;>>>>>>>>>>>>>>>>>>>>>>>>>>>;=%@",
"+$*-;;;;;;;;;;;;;;;;;;;;;;;;;;;-*$+",
".#&*===========================*&#.",
" +#$%%%%%%%%%%%%%%%%%%%%%%%%%%%$#+ ",
"  .+@@@@@@@@@@@@@@@@@@@@@@@@@@@+.  "};
